<?xml version="1.0" encoding="UTF-8" standalone="no"?>
<!-- Created with Inkscape (http://www.inkscape.org/) -->

<svg
   width="4.8424215mm"
   height="57.121464mm"
   viewBox="0 0 4.8424215 57.121464"
   version="1.1"
   id="svg7784"
   inkscape:version="1.3.2 (091e20ef0f, 2023-11-25, custom)"
   sodipodi:docname="cim_rotated.svg.svg"
   xmlns:inkscape="http://www.inkscape.org/namespaces/inkscape"
   xmlns:sodipodi="http://sodipodi.sourceforge.net/DTD/sodipodi-0.dtd"
   xmlns="http://www.w3.org/2000/svg"
   xmlns:svg="http://www.w3.org/2000/svg"
   xmlns:rdf="http://www.w3.org/1999/02/22-rdf-syntax-ns#"
   xmlns:cc="http://creativecommons.org/ns#"
   xmlns:dc="http://purl.org/dc/elements/1.1/">
  <defs
     id="defs7778">
    <inkscape:path-effect
       effect="bspline"
       id="path-effect5420"
       is_visible="true"
       weight="33.333333"
       steps="2"
       helper_size="0"
       apply_no_weight="true"
       apply_with_weight="true"
       only_selected="false"
       lpeversion="0"
       uniform="false" />
    <inkscape:path-effect
       effect="bspline"
       id="path-effect5420-9"
       is_visible="true"
       weight="33.333333"
       steps="2"
       helper_size="0"
       apply_no_weight="true"
       apply_with_weight="true"
       only_selected="false"
       lpeversion="0"
       uniform="false" />
    <inkscape:path-effect
       effect="bspline"
       id="path-effect5420-9-6"
       is_visible="true"
       weight="33.333333"
       steps="2"
       helper_size="0"
       apply_no_weight="true"
       apply_with_weight="true"
       only_selected="false"
       lpeversion="0"
       uniform="false" />
  </defs>
  <sodipodi:namedview
     id="base"
     pagecolor="#ffffff"
     bordercolor="#666666"
     borderopacity="1.0"
     inkscape:pageopacity="0.0"
     inkscape:pageshadow="2"
     inkscape:zoom="1.979899"
     inkscape:cx="75.003826"
     inkscape:cy="68.185297"
     inkscape:document-units="mm"
     inkscape:current-layer="text5054"
     showgrid="false"
     fit-margin-top="0.2"
     fit-margin-left="0"
     fit-margin-right="0"
     fit-margin-bottom="0.2"
     inkscape:window-width="1920"
     inkscape:window-height="1034"
     inkscape:window-x="0"
     inkscape:window-y="0"
     inkscape:window-maximized="1"
     inkscape:showpageshadow="2"
     inkscape:pagecheckerboard="0"
     inkscape:deskcolor="#d1d1d1" />
  <metadata
     id="metadata7781">
    <rdf:RDF>
      <cc:Work
         rdf:about="">
        <dc:format>image/svg+xml</dc:format>
        <dc:type
           rdf:resource="http://purl.org/dc/dcmitype/StillImage" />
      </cc:Work>
    </rdf:RDF>
  </metadata>
  <g
     inkscape:label="Layer 1"
     inkscape:groupmode="layer"
     id="layer1"
     transform="translate(-142.4934,-143.41728)">
    <g
       id="text5054"
       style="font-style:normal;font-variant:normal;font-weight:300;font-stretch:normal;font-size:4.04293px;line-height:125%;font-family:'ITC Avant Garde Gothic Std';-inkscape-font-specification:'ITC Avant Garde Gothic Std Light';font-variant-ligatures:normal;font-variant-position:normal;font-variant-caps:normal;font-variant-numeric:normal;font-variant-alternates:normal;font-feature-settings:normal;text-indent:0;text-align:start;text-decoration:none;text-decoration-line:none;text-decoration-style:solid;text-decoration-color:#000000;letter-spacing:0px;word-spacing:0px;text-transform:none;writing-mode:lr-tb;direction:ltr;text-orientation:mixed;dominant-baseline:auto;baseline-shift:baseline;text-anchor:start;white-space:normal;shape-padding:0;opacity:1;vector-effect:none;fill:#000000;fill-opacity:1;stroke:none;stroke-width:0.233246px;stroke-linecap:butt;stroke-linejoin:miter;stroke-miterlimit:4;stroke-dasharray:none;stroke-dashoffset:0;stroke-opacity:1"
       aria-label="@pganssle"
       transform="matrix(0,-1.2078369,1.2078369,0,-90.364341,303.97388)">
      <text
         xml:space="preserve"
         style="font-size:4.08904px;line-height:1.25;font-family:sans-serif;letter-spacing:0px;word-spacing:0px;stroke-width:0.0510938px"
         x="90.609169"
         y="195.73726"
         id="text1"><tspan
           sodipodi:role="line"
           id="tspan1"
           style="font-style:normal;font-variant:normal;font-weight:bold;font-stretch:normal;font-size:4.08904px;font-family:'Frutiger Next Pro';-inkscape-font-specification:'Frutiger Next Pro Bold';stroke-width:0.0510938px"
           x="90.609169"
           y="195.73726">pganssle.github.io/cim</tspan></text>
      <g
         id="g6"
         transform="matrix(0.43093773,0,0,0.43093773,33.969669,116.39866)"
         style="stroke-width:0.541252px">
        <g
           id="g5"
           style="stroke-width:0.541252px">
          <path
             style="color:#000000;-inkscape-font-specification:'ITC Avant Garde Gothic Std Light';stroke-width:0.541252px;stroke-linecap:round;-inkscape-stroke:none"
             d="m 126.66016,182.38086 a 0.43811101,0.43811101 0 0 0 -0.4375,0.43945 v 0.3418 2.13281 0.46485 c 0,5e-4 10e-4,0.092 0.002,0.17968 3e-4,0.0438 2.1e-4,0.089 0,0.1211 -1.1e-4,0.0161 1.7e-4,0.0293 0,0.0351 -1.7e-4,0.006 -0.0163,0.056 0.008,-0.0566 a 0.43811101,0.43811101 0 0 0 0.33594,0.51953 0.43811101,0.43811101 0 0 0 0.51953,-0.33593 c 0.0253,-0.11846 0.0112,-0.084 0.0117,-0.10157 5.1e-4,-0.0176 0.002,-0.0349 0.002,-0.0547 2.6e-4,-0.0395 -0.002,-0.0869 -0.002,-0.13282 -6.4e-4,-0.0919 -0.002,-0.17332 -0.002,-0.17382 v -0.46485 -2.13281 -0.3418 a 0.43811101,0.43811101 0 0 0 -0.4375,-0.43945 z"
             id="path2" />
          <path
             style="color:#000000;-inkscape-font-specification:'ITC Avant Garde Gothic Std Light';stroke-width:0.541252px;stroke-linecap:round;-inkscape-stroke:none"
             d="m 125.04102,184.03711 c -0.006,-1.7e-4 -0.056,-0.0143 0.0566,0.01 a 0.43811101,0.43811101 0 0 0 -0.52149,0.33594 0.43811101,0.43811101 0 0 0 0.33789,0.51953 c 0.11846,0.0253 0.084,0.0112 0.10157,0.0117 0.0176,5.2e-4 0.0349,-1.3e-4 0.0547,0 0.0395,2.6e-4 0.0869,3.2e-4 0.13282,0 0.0919,-6.4e-4 0.17332,-0.002 0.17382,-0.002 h 0.46289 2.13477 0.3418 a 0.43811101,0.43811101 0 0 0 0.43945,-0.4375 0.43811101,0.43811101 0 0 0 -0.43945,-0.4375 h -0.3418 -2.13477 -0.46289 c -5e-4,0 -0.092,10e-4 -0.17968,0.002 -0.0438,3.1e-4 -0.089,2.1e-4 -0.1211,0 -0.0161,-1e-4 -0.0293,-0.002 -0.0352,-0.002 z"
             id="path2-9" />
        </g>
        <path
           style="color:#000000;-inkscape-font-specification:'ITC Avant Garde Gothic Std Light';stroke-width:0.541252px;stroke-linecap:round;stroke-linejoin:round;-inkscape-stroke:none;paint-order:markers fill stroke"
           d="m 125.83398,177.68359 c -0.6938,0 -1.26757,0.57182 -1.26757,1.26563 v 1.65625 c 0,0.69381 0.57377,1.26562 1.26757,1.26562 h 1.6543 c 0.6938,0 1.26758,-0.57181 1.26758,-1.26562 v -1.65625 c 0,-0.69381 -0.57378,-1.26563 -1.26758,-1.26563 z"
           id="path4"
           sodipodi:nodetypes="sssssssss" />
        <path
           style="color:#000000;font-style:normal;font-variant:normal;font-weight:300;font-stretch:normal;font-size:4.04293px;line-height:125%;font-family:'ITC Avant Garde Gothic Std';-inkscape-font-specification:'ITC Avant Garde Gothic Std Light';font-variant-ligatures:normal;font-variant-position:normal;font-variant-caps:normal;font-variant-numeric:normal;font-variant-alternates:normal;font-feature-settings:normal;text-indent:0;text-align:start;text-decoration:none;text-decoration-line:none;text-decoration-style:solid;text-decoration-color:#000000;letter-spacing:0px;word-spacing:0px;text-transform:none;writing-mode:lr-tb;direction:ltr;text-orientation:mixed;dominant-baseline:auto;baseline-shift:baseline;text-anchor:start;white-space:normal;shape-padding:0;vector-effect:none;fill:#000000;fill-opacity:1;stroke:none;stroke-width:0.541252px;stroke-linecap:round;stroke-linejoin:round;stroke-miterlimit:4;stroke-dasharray:none;stroke-dashoffset:0;stroke-opacity:1;-inkscape-stroke:none;paint-order:markers fill stroke"
           d="m 121.16193,177.68359 c -0.6938,0 -1.26757,0.57182 -1.26757,1.26563 v 1.65625 c 0,0.69381 0.57377,1.26562 1.26757,1.26562 h 1.6543 c 0.6938,0 1.26758,-0.57181 1.26758,-1.26562 v -1.65625 c 0,-0.69381 -0.57378,-1.26563 -1.26758,-1.26563 z"
           id="path4-7"
           sodipodi:nodetypes="sssssssss" />
        <path
           style="color:#000000;font-style:normal;font-variant:normal;font-weight:300;font-stretch:normal;font-size:4.04293px;line-height:125%;font-family:'ITC Avant Garde Gothic Std';-inkscape-font-specification:'ITC Avant Garde Gothic Std Light';font-variant-ligatures:normal;font-variant-position:normal;font-variant-caps:normal;font-variant-numeric:normal;font-variant-alternates:normal;font-feature-settings:normal;text-indent:0;text-align:start;text-decoration:none;text-decoration-line:none;text-decoration-style:solid;text-decoration-color:#000000;letter-spacing:0px;word-spacing:0px;text-transform:none;writing-mode:lr-tb;direction:ltr;text-orientation:mixed;dominant-baseline:auto;baseline-shift:baseline;text-anchor:start;white-space:normal;shape-padding:0;vector-effect:none;fill:#000000;fill-opacity:1;stroke:none;stroke-width:0.541252px;stroke-linecap:round;stroke-linejoin:round;stroke-miterlimit:4;stroke-dasharray:none;stroke-dashoffset:0;stroke-opacity:1;-inkscape-stroke:none;paint-order:markers fill stroke"
           d="m 121.16193,182.38138 c -0.6938,0 -1.26757,0.57182 -1.26757,1.26563 v 1.65625 c 0,0.69381 0.57377,1.26562 1.26757,1.26562 h 1.6543 c 0.6938,0 1.26758,-0.57181 1.26758,-1.26562 v -1.65625 c 0,-0.69381 -0.57378,-1.26563 -1.26758,-1.26563 z"
           id="path4-7-0"
           sodipodi:nodetypes="sssssssss" />
      </g>
      <path
         style="font-style:normal;font-variant:normal;font-weight:300;font-stretch:normal;font-size:4.04293px;line-height:125%;font-family:'ITC Avant Garde Gothic Std';-inkscape-font-specification:'ITC Avant Garde Gothic Std Light';font-variant-ligatures:normal;font-variant-position:normal;font-variant-caps:normal;font-variant-numeric:normal;font-variant-alternates:normal;font-feature-settings:normal;text-indent:0;text-align:start;text-decoration:none;text-decoration-line:none;text-decoration-style:solid;text-decoration-color:#000000;letter-spacing:0px;word-spacing:0px;text-transform:none;writing-mode:lr-tb;direction:ltr;text-orientation:mixed;dominant-baseline:auto;baseline-shift:baseline;text-anchor:start;white-space:normal;shape-padding:0;vector-effect:none;fill:none;fill-opacity:1;fill-rule:evenodd;stroke:#000000;stroke-width:0.276913px;stroke-linecap:butt;stroke-linejoin:miter;stroke-miterlimit:4;stroke-dasharray:none;stroke-dashoffset:0;stroke-opacity:1"
         d="m 129.43103,168.11709 c -5.29205,0 -10.58432,0 -15.8768,0"
         id="path5418-3"
         inkscape:connector-curvature="0"
         inkscape:path-effect="#path-effect5420-9"
         inkscape:original-d="m 129.43103,168.11709 c -5.29205,2.2e-4 -10.58432,2.2e-4 -15.8768,0"
         transform="matrix(0.79106466,0,0,0.79106466,5.7228139,63.188622)" />
      <path
         style="font-style:normal;font-variant:normal;font-weight:300;font-stretch:normal;font-size:4.04293px;line-height:125%;font-family:'ITC Avant Garde Gothic Std';-inkscape-font-specification:'ITC Avant Garde Gothic Std Light';font-variant-ligatures:normal;font-variant-position:normal;font-variant-caps:normal;font-variant-numeric:normal;font-variant-alternates:normal;font-feature-settings:normal;text-indent:0;text-align:start;text-decoration:none;text-decoration-line:none;text-decoration-style:solid;text-decoration-color:#000000;letter-spacing:0px;word-spacing:0px;text-transform:none;writing-mode:lr-tb;direction:ltr;text-orientation:mixed;dominant-baseline:auto;baseline-shift:baseline;text-anchor:start;white-space:normal;shape-padding:0;vector-effect:none;fill:none;fill-opacity:1;fill-rule:evenodd;stroke:#000000;stroke-width:0.155258px;stroke-linecap:butt;stroke-linejoin:miter;stroke-miterlimit:4;stroke-dasharray:none;stroke-dashoffset:0;stroke-opacity:1"
         d="m 129.43103,168.11709 c -5.29205,0 -10.58432,0 -15.8768,0"
         id="path5418-3-0"
         inkscape:connector-curvature="0"
         inkscape:path-effect="#path-effect5420-9-6"
         inkscape:original-d="m 129.43103,168.11709 c -5.29205,2.2e-4 -10.58432,2.2e-4 -15.8768,0"
         transform="matrix(1.4109153,0,0,1.4109153,-49.687183,-41.018864)" />
    </g>
  </g>
</svg>
